<?xml version="1.0" encoding="utf-8"?>
<!-- Generator: Adobe Illustrator 18.1.1, SVG Export Plug-In . SVG Version: 6.00 Build 0)  -->
<svg version="1.1" id="Capa_1" xmlns="http://www.w3.org/2000/svg" xmlns:xlink="http://www.w3.org/1999/xlink" x="0px" y="0px"
	 viewBox="0 0 560 960" enable-background="new 0 0 560 960" xml:space="preserve">
<g>
	<path fill="#FFFFFF" d="M164.6,348.8h-50.4c-3.8,0-6.8-3-6.8-6.8v-5c0-6.1,5-11.1,11.1-11.1h41.8c6.1,0,11.1,5,11.1,11.1v5
		C171.4,345.8,168.3,348.8,164.6,348.8z"/>
	<path fill="#FFFFFF" d="M117.8,554.6c-1.2-5.1-5.7-9-11.2-9H58.3c-7.8,0-13.3,7.5-11,14.9l6.3,20.1c1.5,4.8,5.9,8.1,11,8.1h42
		c0.1,0,0.1,0,0.2,0C107.2,576.1,111.2,564.4,117.8,554.6z"/>
	<path fill="#FFFFFF" d="M543.6,488.5l-32.6-79c-1.5-3.6-5-6-8.9-6l-100-7.8c-5.3,0-9.6,4.3-9.6,9.6v129.9v10.4H220.1l15.1,38.3
		c1.1,2.9,4,4.8,7.1,4.8h144c3.4,0,6.2-2.8,6.2-6.2v-3.4c0,5.3,4.3,9.6,9.6,9.6h2.2c1-34.6,29.4-62.4,64.2-62.4
		c34.7,0,63,27.6,64.1,62c0,0.2,0.2,0.4,0.4,0.4c5.2,0,9.5-4.2,9.6-9.4l1.8-87C544.3,491,544.1,489.7,543.6,488.5z M519,490.7
		l-79.7-8c-4.6-0.5-8.2-4.4-8.2-9v-53.5c0-4.5,3.9-8,8.3-7.7l55.7,4.7c4.7,0.4,8.8,3.4,10.6,7.8l22.1,53.6
		C530.5,484.8,525.6,491.4,519,490.7z"/>
	<path fill="#FFFFFF" d="M171,547c-24.1,0-43.6,19.5-43.6,43.6s19.5,43.6,43.6,43.6s43.6-19.5,43.6-43.6
		C214.5,566.5,195,547,171,547z M171,609c-10.2,0-18.5-8.3-18.5-18.5S160.8,572,171,572s18.5,8.3,18.5,18.5S181.2,609,171,609z"/>
	<path fill="#FFFFFF" d="M468.4,547c-24.1,0-43.6,19.5-43.6,43.6s19.5,43.6,43.6,43.6c24.1,0,43.6-19.5,43.6-43.6
		C511.9,566.5,492.4,547,468.4,547z M468.4,609c-10.2,0-18.5-8.3-18.5-18.5s8.3-18.5,18.5-18.5s18.5,8.3,18.5,18.5
		S478.6,609,468.4,609z"/>
	<path fill="#FFFFFF" d="M372.9,414.1c-2.3-0.9-4.9-1.7-7.3-2.6l-1.9-0.7l-0.5-0.2l-0.2-0.1l0,0l-0.8-0.2l-3.3-1l-3.3-1l-3.3-0.7
		l-3.3-0.7c-1.1-0.3-2.2-0.3-3.3-0.5c-8.9-1.2-17.9-1-26.8-0.1c-8.9,0.9-17.7,2.5-26.1,3.6s-16.2,2-23.2,2.2c-1.7,0-3.4,0.1-5.1,0.1
		c-1.6,0-3.2-0.1-4.7-0.2c-1.5-0.1-3-0.1-4.3-0.2c-1.4-0.1-2.7-0.3-4-0.4c-2.5-0.3-4.7-0.5-6.6-0.9c-1.9-0.4-3.4-0.7-4.7-1
		c-2.6-0.6-3.9-0.9-3.9-0.9s1.4-0.2,4-0.6c1.3-0.2,2.9-0.4,4.8-0.6c1.9-0.3,4-0.8,6.3-1.2c1.2-0.2,2.4-0.5,3.7-0.7
		c1.3-0.3,2.6-0.6,4-1c1.4-0.3,2.8-0.7,4.3-1c1.5-0.4,3-0.9,4.6-1.3c6.3-1.8,13.3-4.2,21.1-6.8c7.8-2.7,16.3-5.7,26.1-8.2
		c9.7-2.4,20.9-4.2,32.7-3.6c3,0,5.9,0.3,8.9,0.8c0,0,0.1,0,0.1,0C344.4,371.2,327,363,307.6,363H83c-37.2,0-67.4,30.2-67.4,67.4
		v37.8c0,8.2,1.5,16.1,4.2,23.4c2.8-0.7,5.6-1.4,8.3-2c12.3-2.9,24.1-5.8,35.5-7.8c11.4-2,22.6-3.2,32.6-2.3
		c10,0.8,18.2,3.6,24.3,6.4c1.5,0.7,3,1.4,4.3,2c1.3,0.7,2.5,1.4,3.6,2c2.3,1.2,4.1,2.4,5.5,3.4c2.9,1.9,4.4,3,4.4,3
		s-1.8-0.4-5.3-1.2c-1.7-0.4-3.8-0.9-6.3-1.3c-2.5-0.5-5.3-0.9-8.4-1.3c-6.3-0.7-13.7-1-21.9,0.3c-8.1,1.3-17,4.3-27,8.2
		c-9.9,3.9-20.9,8.6-32.8,13.4c-0.7,0.3-1.4,0.5-2,0.8c12.2,12.5,29.3,20.3,48.2,20.3h224.5c37.2,0,67.4-30.2,67.4-67.4v-37.8
		C374.9,424.7,374.2,419.3,372.9,414.1z M177.6,505.2c-10.8-4.7-19-14.1-22-25.6l0,0c-1.4-5.3-2.2-10.8-2.2-16.5
		c0-18.5,7.9-35.2,20.6-46.9c-5.4,28.9,8.1,50.7,20.7,60.8c3.9,3,6.5,7.8,6.5,13.1c0,9.2-7.4,16.6-16.6,16.6
		C182.1,506.7,179.7,506.2,177.6,505.2L177.6,505.2z M195.7,508.1c0,0-0.2,0-0.3-0.2c-0.1-0.3,0.1-0.3,0.1-0.3
		c6.9-2.7,11.7-9.3,11.7-17.1c0-9.4-6.9-14.3-6.9-14.3c-23.6-19.3-22.4-47.4-22.4-47.4c0-14.2,4.8-27.3,12.9-37.7
		c0,0,0.4-0.8,1.1-0.5c0.6,0.2,0,1,0,1c-5.7,9.5-8.9,20.6-8.9,32.4c0,19.2,8.5,36.4,22,48.1c0,0,8,5.7,8,16.4
		C213.1,502.2,202.8,506.6,195.7,508.1z M213,500c3-3.8,4.8-8.6,4.8-13.9c0-6.8-3-12.9-7.8-16.9c-1-0.6-1.9-1.3-2.8-2
		c-10.8-8.4-17.9-21.2-18.8-35.8c-0.1-1-0.1-1.9-0.1-2.9c0-22.6,11.4-38.1,11.4-38.1l0,0c-1.6,4.7-2.4,9.7-2.4,14.9
		c0,12.5,5.2,24.2,13.2,32.6c8,8.4,13.2,20,13.2,32.5c0,11.4-4.1,21.8-10.8,29.9C212.9,500.1,213,500,213,500z M220.6,501.4
		c0,0-1.1,1.2-2,0.3c-0.6-0.6-0.5-1.1-0.3-1.4c6.8-8.1,10.8-18.5,10.8-29.9c0-12.5-5.2-24.1-13.2-32.5c-8-8.4-13.2-20-13.2-32.6
		c0-5.2,0.9-10.2,2.4-14.9c0,0.1,1.3,17.6,12.6,32.1c0,0,19.3,18.8,19.3,44.1C237,466.7,239.7,487.6,220.6,501.4z"/>
</g>
</svg>
