<?xml version="1.0" encoding="utf-8"?>
<!-- Generator: Adobe Illustrator 24.0.1, SVG Export Plug-In . SVG Version: 6.00 Build 0)  -->
<svg version="1.1" id="Capa_1" xmlns="http://www.w3.org/2000/svg" xmlns:xlink="http://www.w3.org/1999/xlink" x="0px" y="0px"
	 viewBox="0 0 500 500" style="enable-background:new 0 0 500 500;" xml:space="preserve">
<style type="text/css">
	.st0{fill:#0071CE;}
</style>
<g>
	<path class="st0" d="M146.93,132.88H101.9c-3.35,0-6.06-2.71-6.06-6.06v-4.49c0-5.47,4.43-9.91,9.91-9.91h37.35
		c5.47,0,9.9,4.43,9.9,9.91v4.48C153,130.16,150.29,132.88,146.93,132.88z"/>
	<path class="st0" d="M105.2,316.58c-1.04-4.58-5.11-8.01-10.01-8.01H52.06c-6.93,0-11.88,6.72-9.81,13.34l5.61,17.95
		c1.34,4.29,5.31,7.21,9.81,7.21h37.52c0.06,0,0.12-0.02,0.19-0.02C95.7,335.79,99.27,325.32,105.2,316.58z"/>
	<path class="st0" d="M485.37,257.59l-29.12-70.56c-1.32-3.24-4.47-5.37-7.97-5.37l-89.33-6.97c-4.75,0-8.6,3.85-8.6,8.6v115.95
		v9.33H196.52l13.46,34.2c1.02,2.6,3.53,4.31,6.33,4.31h128.53c3.05,0,5.53-2.48,5.53-5.53v-3.07c0,4.75,3.85,8.6,8.6,8.6h1.95
		c0.85-30.86,26.21-55.71,57.28-55.71c30.95,0,56.23,24.66,57.27,55.36c0.01,0.2,0.17,0.35,0.36,0.35c4.68,0,8.5-3.74,8.6-8.42
		L486,261C486.02,259.83,485.81,258.67,485.37,257.59z M463.39,259.58l-71.14-7.14c-4.14-0.42-7.3-3.9-7.3-8.07v-47.77
		c0-4.02,3.44-7.18,7.44-6.84l49.77,4.21c4.22,0.36,7.88,3.04,9.5,6.95l19.76,47.87C473.68,254.27,469.28,260.17,463.39,259.58z"/>
	<path class="st0" d="M152.66,309.78c-21.48,0-38.9,17.42-38.9,38.9c0,21.48,17.42,38.9,38.9,38.9c21.48,0,38.9-17.42,38.9-38.9
		C191.56,327.2,174.14,309.78,152.66,309.78z M152.66,365.18c-9.11,0-16.5-7.39-16.5-16.5s7.39-16.5,16.5-16.5
		c9.11,0,16.5,7.39,16.5,16.5S161.77,365.18,152.66,365.18z"/>
	<path class="st0" d="M418.18,309.78c-21.48,0-38.9,17.42-38.9,38.9c0,21.48,17.42,38.9,38.9,38.9s38.9-17.42,38.9-38.9
		C457.08,327.2,439.66,309.78,418.18,309.78z M418.18,365.18c-9.11,0-16.5-7.39-16.5-16.5s7.39-16.5,16.5-16.5
		c9.11,0,16.5,7.39,16.5,16.5S427.29,365.18,418.18,365.18z"/>
	<path class="st0" d="M332.94,191.16c-2.01-0.8-4.37-1.56-6.5-2.36l-1.68-0.62l-0.42-0.16l-0.15-0.06l-0.03-0.01l-0.74-0.22
		l-2.97-0.89l-2.96-0.91l-2.98-0.6l-2.97-0.65c-0.99-0.23-1.99-0.28-2.98-0.43c-7.94-1.1-15.96-0.93-23.92-0.09
		c-7.95,0.81-15.82,2.19-23.28,3.22c-7.46,1.03-14.48,1.8-20.75,1.95c-1.56,0.04-3.07,0.07-4.53,0.11
		c-1.46-0.01-2.88-0.09-4.23-0.14c-1.35-0.06-2.64-0.11-3.87-0.16c-1.24-0.09-2.44-0.27-3.56-0.39c-2.23-0.27-4.22-0.45-5.89-0.8
		c-1.67-0.35-3.08-0.65-4.23-0.89c-2.3-0.52-3.52-0.8-3.52-0.8s1.25-0.18,3.58-0.52c1.17-0.15,2.6-0.34,4.3-0.57
		c1.69-0.24,3.56-0.69,5.65-1.05c1.03-0.2,2.12-0.41,3.27-0.63c1.14-0.28,2.34-0.56,3.59-0.87c1.24-0.29,2.52-0.6,3.86-0.92
		c1.32-0.38,2.69-0.77,4.1-1.17c5.65-1.57,11.89-3.71,18.81-6.11c6.92-2.37,14.54-5.13,23.29-7.33c8.7-2.18,18.69-3.75,29.23-3.25
		c2.64,0.01,5.28,0.3,7.93,0.68c0.03,0,0.06,0.01,0.1,0.01c-10.97-11.71-26.57-19.03-43.88-19.03H74.15
		c-33.22,0-60.15,26.93-60.15,60.15v33.74c0,7.35,1.32,14.38,3.73,20.89c2.5-0.61,4.99-1.21,7.44-1.8c10.94-2.6,21.52-5.14,31.69-7
		c10.15-1.83,20.16-2.85,29.07-2.04c8.92,0.74,16.22,3.24,21.69,5.69c1.36,0.63,2.65,1.23,3.86,1.79c1.15,0.65,2.23,1.26,3.23,1.83
		c2.01,1.11,3.65,2.13,4.95,3c2.59,1.74,3.97,2.67,3.97,2.67s-1.64-0.36-4.72-1.04c-1.51-0.38-3.39-0.78-5.61-1.14
		c-2.2-0.42-4.72-0.84-7.53-1.14c-5.6-0.63-12.27-0.93-19.51,0.31c-7.26,1.19-15.2,3.8-24.07,7.31
		c-8.88,3.49-18.63,7.69-29.27,11.92c-0.6,0.25-1.22,0.47-1.82,0.71c10.92,11.2,26.17,18.16,43.05,18.16h200.42
		c33.22,0,60.15-26.93,60.15-60.15v-33.74C334.71,200.66,334.09,195.8,332.94,191.16z M158.59,272.48
		c-9.61-4.17-16.94-12.59-19.64-22.9l-0.02,0.01c-1.25-4.7-1.92-9.63-1.92-14.72c0-16.56,7.07-31.47,18.35-41.87
		c-4.81,25.78,7.2,45.3,18.47,54.31c3.51,2.7,5.77,6.95,5.77,11.73c0,8.18-6.63,14.81-14.8,14.81
		C162.57,273.85,160.47,273.36,158.59,272.48L158.59,272.48z M174.73,275.08c0,0-0.16,0.04-0.23-0.2c-0.07-0.25,0.11-0.3,0.11-0.3
		c6.13-2.37,10.47-8.32,10.47-15.28c0-8.35-6.16-12.8-6.16-12.8c-21.09-17.19-20.01-42.36-20.01-42.36
		c0-12.69,4.31-24.37,11.54-33.66c0,0,0.39-0.67,0.97-0.46c0.52,0.19,0.02,0.85,0.02,0.85c-5.05,8.48-7.95,18.39-7.95,28.97
		c0,17.16,7.62,32.54,19.66,42.94c0,0,7.11,5.08,7.11,14.62C190.24,269.79,181.11,273.79,174.73,275.08z M190.18,267.88
		c2.71-3.39,4.33-7.7,4.33-12.38c0-6.06-2.72-11.48-7-15.13c-0.85-0.58-1.7-1.18-2.51-1.83c-9.61-7.52-16-18.96-16.76-31.92
		c-0.05-0.86-0.08-1.73-0.08-2.6c0-20.2,10.15-34,10.15-34v0c-1.4,4.17-2.15,8.64-2.15,13.28c0,11.17,4.64,21.58,11.78,29.07
		c7.13,7.48,11.76,17.87,11.76,29.02c0,10.15-3.63,19.46-9.66,26.69C190.11,267.96,190.18,267.88,190.18,267.88z M196.95,269.08
		c0,0-1.02,1.03-1.78,0.26c-0.56-0.55-0.44-1.02-0.31-1.27c6.03-7.23,9.66-16.53,9.66-26.69c0-11.15-4.63-21.53-11.76-29.02
		c-7.14-7.5-11.78-17.9-11.78-29.07c0-4.64,0.76-9.11,2.15-13.28c0.01,0.13,1.12,15.74,11.25,28.67c0,0,17.19,16.75,17.19,39.4
		C211.58,238.09,214.06,256.83,196.95,269.08z"/>
</g>
</svg>
